<mxfile host="Electron" agent="Mozilla/5.0 (X11; Linux x86_64) AppleWebKit/537.36 (KHTML, like Gecko) draw.io/24.7.8 Chrome/128.0.6613.36 Electron/32.0.1 Safari/537.36" version="24.7.8">
  <diagram name="Page-1" id="_JZT5JnoTkvcQPtU1PSP">
    <mxGraphModel dx="2525" dy="1029" grid="1" gridSize="10" guides="1" tooltips="1" connect="1" arrows="1" fold="1" page="1" pageScale="1" pageWidth="850" pageHeight="1100" math="0" shadow="0">
      <root>
        <mxCell id="0" />
        <mxCell id="1" parent="0" />
        <mxCell id="T6qtZTFMgPrJZFWfyIdF-3" style="edgeStyle=orthogonalEdgeStyle;rounded=0;orthogonalLoop=1;jettySize=auto;html=1;" edge="1" parent="1" source="T6qtZTFMgPrJZFWfyIdF-1" target="T6qtZTFMgPrJZFWfyIdF-2">
          <mxGeometry relative="1" as="geometry" />
        </mxCell>
        <mxCell id="T6qtZTFMgPrJZFWfyIdF-27" style="edgeStyle=orthogonalEdgeStyle;rounded=0;orthogonalLoop=1;jettySize=auto;html=1;entryX=0.5;entryY=1;entryDx=0;entryDy=0;" edge="1" parent="1" source="T6qtZTFMgPrJZFWfyIdF-1" target="T6qtZTFMgPrJZFWfyIdF-26">
          <mxGeometry relative="1" as="geometry" />
        </mxCell>
        <mxCell id="T6qtZTFMgPrJZFWfyIdF-34" style="edgeStyle=orthogonalEdgeStyle;rounded=0;orthogonalLoop=1;jettySize=auto;html=1;" edge="1" parent="1" source="T6qtZTFMgPrJZFWfyIdF-1" target="T6qtZTFMgPrJZFWfyIdF-33">
          <mxGeometry relative="1" as="geometry" />
        </mxCell>
        <mxCell id="T6qtZTFMgPrJZFWfyIdF-1" value="si:shapeIndex" style="ellipse;whiteSpace=wrap;html=1;aspect=fixed;fillColor=#f8cecc;strokeColor=#b85450;" vertex="1" parent="1">
          <mxGeometry x="120" y="120" width="80" height="80" as="geometry" />
        </mxCell>
        <mxCell id="T6qtZTFMgPrJZFWfyIdF-25" style="edgeStyle=orthogonalEdgeStyle;rounded=0;orthogonalLoop=1;jettySize=auto;html=1;" edge="1" parent="1" source="T6qtZTFMgPrJZFWfyIdF-2" target="T6qtZTFMgPrJZFWfyIdF-23">
          <mxGeometry relative="1" as="geometry" />
        </mxCell>
        <mxCell id="T6qtZTFMgPrJZFWfyIdF-2" value="si:Entry" style="ellipse;whiteSpace=wrap;html=1;aspect=fixed;fillColor=#ffe6cc;strokeColor=#d79b00;" vertex="1" parent="1">
          <mxGeometry x="320" y="120" width="80" height="80" as="geometry" />
        </mxCell>
        <mxCell id="T6qtZTFMgPrJZFWfyIdF-4" value="si:entry" style="ellipse;whiteSpace=wrap;html=1;aspect=fixed;" vertex="1" parent="1">
          <mxGeometry x="137.5" y="280" width="80" height="80" as="geometry" />
        </mxCell>
        <mxCell id="T6qtZTFMgPrJZFWfyIdF-5" value="si:shape" style="ellipse;whiteSpace=wrap;html=1;aspect=fixed;" vertex="1" parent="1">
          <mxGeometry x="502.5" y="280" width="80" height="80" as="geometry" />
        </mxCell>
        <mxCell id="T6qtZTFMgPrJZFWfyIdF-8" value="1" style="text;html=1;align=center;verticalAlign=middle;resizable=0;points=[];autosize=1;strokeColor=none;fillColor=none;" vertex="1" parent="1">
          <mxGeometry x="200" y="158" width="30" height="30" as="geometry" />
        </mxCell>
        <mxCell id="T6qtZTFMgPrJZFWfyIdF-9" value="*" style="text;html=1;align=center;verticalAlign=middle;resizable=0;points=[];autosize=1;strokeColor=none;fillColor=none;" vertex="1" parent="1">
          <mxGeometry x="285" y="128" width="30" height="30" as="geometry" />
        </mxCell>
        <mxCell id="T6qtZTFMgPrJZFWfyIdF-10" value="*" style="text;html=1;align=center;verticalAlign=middle;whiteSpace=wrap;rounded=0;" vertex="1" parent="1">
          <mxGeometry x="200" y="290" width="60" height="30" as="geometry" />
        </mxCell>
        <mxCell id="T6qtZTFMgPrJZFWfyIdF-11" value="1" style="text;html=1;align=center;verticalAlign=middle;whiteSpace=wrap;rounded=0;" vertex="1" parent="1">
          <mxGeometry x="320" y="200" width="60" height="30" as="geometry" />
        </mxCell>
        <mxCell id="T6qtZTFMgPrJZFWfyIdF-13" value="shape document" style="whiteSpace=wrap;html=1;aspect=fixed;" vertex="1" parent="1">
          <mxGeometry x="640" y="330" width="80" height="80" as="geometry" />
        </mxCell>
        <mxCell id="T6qtZTFMgPrJZFWfyIdF-14" value="RDF document" style="whiteSpace=wrap;html=1;aspect=fixed;" vertex="1" parent="1">
          <mxGeometry x="5" y="320" width="80" height="80" as="geometry" />
        </mxCell>
        <mxCell id="T6qtZTFMgPrJZFWfyIdF-19" value="" style="endArrow=none;dashed=1;html=1;dashPattern=1 3;strokeWidth=2;rounded=0;exitX=1;exitY=0.5;exitDx=0;exitDy=0;entryX=0;entryY=0.5;entryDx=0;entryDy=0;" edge="1" parent="1" source="T6qtZTFMgPrJZFWfyIdF-5" target="T6qtZTFMgPrJZFWfyIdF-13">
          <mxGeometry width="50" height="50" relative="1" as="geometry">
            <mxPoint x="650" y="362.5" as="sourcePoint" />
            <mxPoint x="700" y="312.5" as="targetPoint" />
          </mxGeometry>
        </mxCell>
        <mxCell id="T6qtZTFMgPrJZFWfyIdF-20" value="" style="endArrow=none;dashed=1;html=1;dashPattern=1 3;strokeWidth=2;rounded=0;entryX=0;entryY=0.5;entryDx=0;entryDy=0;exitX=1;exitY=0.5;exitDx=0;exitDy=0;" edge="1" parent="1" source="T6qtZTFMgPrJZFWfyIdF-14" target="T6qtZTFMgPrJZFWfyIdF-4">
          <mxGeometry width="50" height="50" relative="1" as="geometry">
            <mxPoint x="445" y="360" as="sourcePoint" />
            <mxPoint x="495" y="310" as="targetPoint" />
          </mxGeometry>
        </mxCell>
        <mxCell id="T6qtZTFMgPrJZFWfyIdF-21" value="RDF document" style="whiteSpace=wrap;html=1;aspect=fixed;" vertex="1" parent="1">
          <mxGeometry x="15" y="330" width="80" height="80" as="geometry" />
        </mxCell>
        <mxCell id="T6qtZTFMgPrJZFWfyIdF-22" value="RDF document" style="whiteSpace=wrap;html=1;aspect=fixed;" vertex="1" parent="1">
          <mxGeometry x="25" y="340" width="80" height="80" as="geometry" />
        </mxCell>
        <mxCell id="T6qtZTFMgPrJZFWfyIdF-38" style="edgeStyle=orthogonalEdgeStyle;rounded=0;orthogonalLoop=1;jettySize=auto;html=1;" edge="1" parent="1" source="T6qtZTFMgPrJZFWfyIdF-23" target="T6qtZTFMgPrJZFWfyIdF-37">
          <mxGeometry relative="1" as="geometry" />
        </mxCell>
        <mxCell id="T6qtZTFMgPrJZFWfyIdF-23" value="si:exclude" style="ellipse;whiteSpace=wrap;html=1;aspect=fixed;" vertex="1" parent="1">
          <mxGeometry x="320.5" y="280" width="80" height="80" as="geometry" />
        </mxCell>
        <mxCell id="T6qtZTFMgPrJZFWfyIdF-24" value="0..1" style="text;html=1;align=center;verticalAlign=middle;whiteSpace=wrap;rounded=0;" vertex="1" parent="1">
          <mxGeometry x="365" y="240" width="60" height="30" as="geometry" />
        </mxCell>
        <mxCell id="T6qtZTFMgPrJZFWfyIdF-31" style="edgeStyle=orthogonalEdgeStyle;rounded=0;orthogonalLoop=1;jettySize=auto;html=1;" edge="1" parent="1" source="T6qtZTFMgPrJZFWfyIdF-26" target="T6qtZTFMgPrJZFWfyIdF-30">
          <mxGeometry relative="1" as="geometry" />
        </mxCell>
        <mxCell id="T6qtZTFMgPrJZFWfyIdF-26" value="si:complete" style="ellipse;whiteSpace=wrap;html=1;aspect=fixed;" vertex="1" parent="1">
          <mxGeometry x="120" width="80" height="80" as="geometry" />
        </mxCell>
        <mxCell id="T6qtZTFMgPrJZFWfyIdF-30" value="xsd:boolean" style="ellipse;whiteSpace=wrap;html=1;aspect=fixed;" vertex="1" parent="1">
          <mxGeometry x="260" width="80" height="80" as="geometry" />
        </mxCell>
        <mxCell id="T6qtZTFMgPrJZFWfyIdF-44" style="edgeStyle=orthogonalEdgeStyle;rounded=0;orthogonalLoop=1;jettySize=auto;html=1;" edge="1" parent="1" source="T6qtZTFMgPrJZFWfyIdF-33" target="T6qtZTFMgPrJZFWfyIdF-43">
          <mxGeometry relative="1" as="geometry" />
        </mxCell>
        <mxCell id="T6qtZTFMgPrJZFWfyIdF-33" value="si:subweb" style="ellipse;whiteSpace=wrap;html=1;aspect=fixed;" vertex="1" parent="1">
          <mxGeometry x="-30" y="120" width="80" height="80" as="geometry" />
        </mxCell>
        <mxCell id="T6qtZTFMgPrJZFWfyIdF-35" value="1" style="text;html=1;align=center;verticalAlign=middle;resizable=0;points=[];autosize=1;strokeColor=none;fillColor=none;" vertex="1" parent="1">
          <mxGeometry x="95" y="170" width="30" height="30" as="geometry" />
        </mxCell>
        <mxCell id="T6qtZTFMgPrJZFWfyIdF-36" value="1..*" style="text;html=1;align=center;verticalAlign=middle;resizable=0;points=[];autosize=1;strokeColor=none;fillColor=none;" vertex="1" parent="1">
          <mxGeometry x="45" y="120" width="40" height="30" as="geometry" />
        </mxCell>
        <mxCell id="T6qtZTFMgPrJZFWfyIdF-37" value="xsd:boolean" style="ellipse;whiteSpace=wrap;html=1;aspect=fixed;" vertex="1" parent="1">
          <mxGeometry x="320" y="390" width="80" height="80" as="geometry" />
        </mxCell>
        <mxCell id="T6qtZTFMgPrJZFWfyIdF-39" value="IRI" style="ellipse;whiteSpace=wrap;html=1;aspect=fixed;" vertex="1" parent="1">
          <mxGeometry x="-270" y="17.5" width="80" height="80" as="geometry" />
        </mxCell>
        <mxCell id="T6qtZTFMgPrJZFWfyIdF-40" value="xsd:string" style="ellipse;whiteSpace=wrap;html=1;aspect=fixed;" vertex="1" parent="1">
          <mxGeometry x="-270" y="222.5" width="80" height="80" as="geometry" />
        </mxCell>
        <mxCell id="T6qtZTFMgPrJZFWfyIdF-43" value="&lt;b&gt;OR&lt;/b&gt;" style="rhombus;whiteSpace=wrap;html=1;" vertex="1" parent="1">
          <mxGeometry x="-160" y="120.5" width="80" height="80" as="geometry" />
        </mxCell>
        <mxCell id="T6qtZTFMgPrJZFWfyIdF-54" value="&lt;h1 style=&quot;margin-top: 0px;&quot;&gt;Comment&lt;/h1&gt;&lt;p&gt;MUST be a valid regex representing an IRI path&lt;/p&gt;" style="text;html=1;whiteSpace=wrap;overflow=hidden;rounded=0;" vertex="1" parent="1">
          <mxGeometry x="-420" y="250" width="140" height="80" as="geometry" />
        </mxCell>
        <mxCell id="T6qtZTFMgPrJZFWfyIdF-55" value="" style="endArrow=classic;html=1;rounded=0;entryX=1;entryY=1;entryDx=0;entryDy=0;exitX=0;exitY=0;exitDx=0;exitDy=0;" edge="1" parent="1" source="T6qtZTFMgPrJZFWfyIdF-43" target="T6qtZTFMgPrJZFWfyIdF-39">
          <mxGeometry width="50" height="50" relative="1" as="geometry">
            <mxPoint x="-80" y="150" as="sourcePoint" />
            <mxPoint x="-30" y="100" as="targetPoint" />
          </mxGeometry>
        </mxCell>
        <mxCell id="T6qtZTFMgPrJZFWfyIdF-56" value="" style="endArrow=classic;html=1;rounded=0;exitX=0;exitY=1;exitDx=0;exitDy=0;entryX=1;entryY=0;entryDx=0;entryDy=0;" edge="1" parent="1" source="T6qtZTFMgPrJZFWfyIdF-43" target="T6qtZTFMgPrJZFWfyIdF-40">
          <mxGeometry width="50" height="50" relative="1" as="geometry">
            <mxPoint x="-80" y="150" as="sourcePoint" />
            <mxPoint x="-30" y="100" as="targetPoint" />
          </mxGeometry>
        </mxCell>
        <mxCell id="T6qtZTFMgPrJZFWfyIdF-58" value="" style="endArrow=classic;html=1;rounded=0;exitX=0;exitY=1;exitDx=0;exitDy=0;entryX=1;entryY=0;entryDx=0;entryDy=0;" edge="1" parent="1" source="T6qtZTFMgPrJZFWfyIdF-2" target="T6qtZTFMgPrJZFWfyIdF-4">
          <mxGeometry width="50" height="50" relative="1" as="geometry">
            <mxPoint x="130" y="300" as="sourcePoint" />
            <mxPoint x="180" y="250" as="targetPoint" />
          </mxGeometry>
        </mxCell>
        <mxCell id="T6qtZTFMgPrJZFWfyIdF-59" value="1" style="text;html=1;align=center;verticalAlign=middle;whiteSpace=wrap;rounded=0;" vertex="1" parent="1">
          <mxGeometry x="285" y="170.5" width="60" height="30" as="geometry" />
        </mxCell>
        <mxCell id="T6qtZTFMgPrJZFWfyIdF-60" value="" style="endArrow=classic;html=1;rounded=0;exitX=1;exitY=1;exitDx=0;exitDy=0;entryX=0;entryY=0;entryDx=0;entryDy=0;" edge="1" parent="1" source="T6qtZTFMgPrJZFWfyIdF-2" target="T6qtZTFMgPrJZFWfyIdF-5">
          <mxGeometry width="50" height="50" relative="1" as="geometry">
            <mxPoint x="342" y="198" as="sourcePoint" />
            <mxPoint x="216" y="302" as="targetPoint" />
          </mxGeometry>
        </mxCell>
      </root>
    </mxGraphModel>
  </diagram>
</mxfile>
